<svg width="23" height="22" viewBox="0 0 23 22" fill="none" xmlns="http://www.w3.org/2000/svg">
<path d="M11.5 0.21875C5.54587 0.21875 0.71875 5.04552 0.71875 11C0.71875 16.9545 5.54587 21.7812 11.5 21.7812C17.4541 21.7812 22.2812 16.9541 22.2812 11C22.2812 5.04552 17.4541 0.21875 11.5 0.21875ZM14.7175 15.5562C13.9811 16.1858 12.9411 16.5002 11.5967 16.5002C10.2239 16.5002 9.14358 16.1901 8.35727 15.5702C7.57059 14.9495 7.17744 14.0975 7.17744 13.0125H9.25714C9.3247 13.489 9.45731 13.8448 9.65425 14.0809C10.0158 14.5104 10.6343 14.7246 11.5108 14.7246C12.0358 14.7246 12.4617 14.6685 12.7891 14.5546C13.4108 14.3375 13.7213 13.9347 13.7213 13.3453C13.7213 13.0014 13.5689 12.7347 13.2649 12.5457C12.9601 12.3617 12.4775 12.1989 11.817 12.058L10.6882 11.8104C9.57842 11.5646 8.81619 11.2986 8.40147 11.0111C7.69817 10.5299 7.34706 9.77777 7.34706 8.75427C7.34706 7.82025 7.69098 7.04472 8.37811 6.42695C9.06523 5.80883 10.0754 5.50012 11.4076 5.50012C12.5203 5.50012 13.4683 5.79122 14.2546 6.37377C15.0395 6.95631 15.4513 7.80192 15.4901 8.91023H13.3957C13.3573 8.28312 13.0769 7.8375 12.5548 7.573C12.2065 7.3987 11.7735 7.31102 11.2563 7.31102C10.6806 7.31102 10.2217 7.42422 9.8785 7.65063C9.5353 7.87703 9.36316 8.19292 9.36316 8.59866C9.36316 8.97133 9.53242 9.24948 9.87131 9.43312C10.0884 9.55603 10.5502 9.69978 11.2567 9.86473L13.0866 10.2963C13.888 10.4847 14.4896 10.7373 14.89 11.0528C15.5113 11.5434 15.8222 12.2535 15.8222 13.1821C15.8222 14.1348 15.4546 14.9265 14.7175 15.5562Z" fill="#989898"/>
</svg>
